<?xml version="1.0" encoding="UTF-8"?>
<svg version="1.1" xmlns="http://www.w3.org/2000/svg" width="203" height="158">
<path d="M0 0 C66.99 0 133.98 0 203 0 C203 52.14 203 104.28 203 158 C136.01 158 69.02 158 0 158 C0 105.86 0 53.72 0 0 Z " fill="#FEFDFD" transform="translate(0,0)"/>
<path d="M0 0 C10.61453158 -0.09305625 21.22896464 -0.16394477 31.84382248 -0.20724869 C36.77379612 -0.22804206 41.70348879 -0.25620735 46.63330078 -0.30175781 C51.39901709 -0.3455119 56.1644647 -0.36919901 60.93036652 -0.37950897 C62.74027989 -0.38684765 64.55018008 -0.40117708 66.35997772 -0.42292023 C78.90937619 -0.56756854 91.07726114 -0.25520847 101.25 8.1796875 C110.73196922 18.0426287 111.42236705 29.67838096 111.44140625 42.66430664 C111.27781637 49.46287194 110.12857712 54.46220188 106 60 C105.38318359 60.95712891 105.38318359 60.95712891 104.75390625 61.93359375 C100.25993161 68.13447864 92.62260009 72.06296464 85.20458984 73.56665039 C81.99787036 74.00028799 78.96077211 74.11366719 75.7265625 74.09765625 C74.57285156 74.09443359 73.41914063 74.09121094 72.23046875 74.08789062 C71.04066406 74.07951172 69.85085937 74.07113281 68.625 74.0625 C67.41199219 74.05798828 66.19898437 74.05347656 64.94921875 74.04882812 C61.96609493 74.03708354 58.98307321 74.0206584 56 74 C56 71.69 56 69.38 56 67 C53.03 67 50.06 67 47 67 C47 69.31 47 71.62 47 74 C44.36 74 41.72 74 39 74 C39 71.36 39 68.72 39 66 C44.26130426 65.26620379 49.32535577 64.87952547 54.6484375 64.859375 C56.08074511 64.84105053 57.51303724 64.82148055 58.9453125 64.80078125 C61.15912487 64.77189692 63.37192462 64.75000068 65.5859375 64.74951172 C75.83189398 64.73355938 84.70865207 64.15567234 92.4375 56.625 C92.953125 55.75875 93.46875 54.8925 94 54 C94.86625 52.5459375 94.86625 52.5459375 95.75 51.0625 C98.97238869 43.01533262 97.74605394 32.08272481 95 24 C92.97763348 19.44967534 90.29554669 17.45459811 86 15 C82.1219598 13.63319046 78.08089382 13.82575333 74.01855469 13.79467773 C72.81798935 13.77982834 72.81798935 13.77982834 71.59317017 13.76467896 C68.95276834 13.73314058 66.31234853 13.70833687 63.671875 13.68359375 C61.83912697 13.6630176 60.00638361 13.64202096 58.17364502 13.62062073 C53.35355418 13.56546829 48.533421 13.51602892 43.71325684 13.46777344 C38.79317463 13.41750854 33.87315379 13.36184852 28.953125 13.30664062 C19.30213578 13.19914257 9.65109324 13.09767907 0 13 C0 8.71 0 4.42 0 0 Z " fill="#2F408F" transform="translate(56,25)"/>
<path d="M0 0 C6.27 0 12.54 0 19 0 C19 9.57 19 19.14 19 29 C15.7 29 12.4 29 9 29 C9 26.69 9 24.38 9 22 C6.03 22 3.06 22 0 22 C0 14.74 0 7.48 0 0 Z " fill="#364693" transform="translate(76,41)"/>
<path d="M0 0 C5.94 0 11.88 0 18 0 C18 8.91 18 17.82 18 27 C12.06 27 6.12 27 0 27 C0 18.09 0 9.18 0 0 Z " fill="#E8222E" transform="translate(56,42)"/>
<path d="M0 0 C1.36067544 0.00502513 2.72135267 0.00958624 4.08203125 0.01367188 C7.38806725 0.02539541 10.69401001 0.04180573 14 0.0625 C14 0.3925 14 0.7225 14 1.0625 C4.76 1.3925 -4.48 1.7225 -14 2.0625 C-14.33 4.3725 -14.66 6.6825 -15 9.0625 C-17.64 9.0625 -20.28 9.0625 -23 9.0625 C-23 6.4225 -23 3.7825 -23 1.0625 C-15.34125934 -0.17813784 -7.74288354 -0.04929358 0 0 Z " fill="#6C77AF" transform="translate(118,89.9375)"/>
<path d="M0 0 C6.875 0.875 6.875 0.875 8 2 C8.1875 4.4375 8.1875 4.4375 8 7 C6 9 6 9 2.875 9.125 C1.451875 9.063125 1.451875 9.063125 0 9 C0 6.03 0 3.06 0 0 Z " fill="#6C77AF" transform="translate(85,114)"/>
<path d="M0 0 C2.64 0 5.28 0 8 0 C8 2.64 8 5.28 8 8 C5.36 8 2.72 8 0 8 C0 5.36 0 2.72 0 0 Z " fill="#EC4953" transform="translate(66,127)"/>
<path d="M0 0 C2.64 0 5.28 0 8 0 C8 2.64 8 5.28 8 8 C5.36 8 2.72 8 0 8 C0 5.36 0 2.72 0 0 Z " fill="#4F5DA0" transform="translate(76,72)"/>
<path d="M0 0 C2.64 0 5.28 0 8 0 C8 2.64 8 5.28 8 8 C5.36 8 2.72 8 0 8 C0 5.36 0 2.72 0 0 Z " fill="#EC4B55" transform="translate(66,72)"/>
<path d="M0 0 C1.98 0.99 1.98 0.99 4 2 C4.33 1.34 4.66 0.68 5 0 C5.99 0 6.98 0 8 0 C8 2.97 8 5.94 8 9 C6.68 8.67 5.36 8.34 4 8 C3.67 7.34 3.34 6.68 3 6 C2.67 6.99 2.34 7.98 2 9 C1.34 9 0.68 9 0 9 C0 6.03 0 3.06 0 0 Z " fill="#445299" transform="translate(110,114)"/>
<path d="M0 0 C2.31 0 4.62 0 7 0 C7 2.64 7 5.28 7 8 C4.69 8 2.38 8 0 8 C0 5.36 0 2.72 0 0 Z " fill="#EA3540" transform="translate(56,127)"/>
<path d="M0 0 C2.31 0 4.62 0 7 0 C7 2.64 7 5.28 7 8 C4.69 8 2.38 8 0 8 C0 5.36 0 2.72 0 0 Z " fill="#EA343F" transform="translate(56,101)"/>
<path d="M0 0 C2.31 0 4.62 0 7 0 C7 2.64 7 5.28 7 8 C4.69 8 2.38 8 0 8 C0 5.36 0 2.72 0 0 Z " fill="#3A4A95" transform="translate(87,83)"/>
<path d="M0 0 C2.31 0 4.62 0 7 0 C7 2.64 7 5.28 7 8 C4.69 8 2.38 8 0 8 C0 5.36 0 2.72 0 0 Z " fill="#EA3742" transform="translate(67,83)"/>
<path d="M0 0 C2.31 0 4.62 0 7 0 C7 2.64 7 5.28 7 8 C4.69 8 2.38 8 0 8 C0 5.36 0 2.72 0 0 Z " fill="#EA333F" transform="translate(56,83)"/>
<path d="M0 0 C2.31 0 4.62 0 7 0 C7 2.64 7 5.28 7 8 C4.69 8 2.38 8 0 8 C0 5.36 0 2.72 0 0 Z " fill="#EA3741" transform="translate(56,72)"/>
<path d="M0 0 C0.99 0 1.98 0 3 0 C3.99 2.97 4.98 5.94 6 9 C3.03 9 0.06 9 -3 9 C-2.44271087 5.65626525 -1.64826111 2.96687001 0 0 Z " fill="#4F5D9F" transform="translate(102,114)"/>
<path d="M0 0 C2.31 0 4.62 0 7 0 C7 2.31 7 4.62 7 7 C4.69 7 2.38 7 0 7 C0 4.69 0 2.38 0 0 Z " fill="#E92935" transform="translate(67,93)"/>
<path d="M0 0 C2.31 0 4.62 0 7 0 C7 2.31 7 4.62 7 7 C4.69 7 2.38 7 0 7 C0 4.69 0 2.38 0 0 Z " fill="#2F408F" transform="translate(79,92)"/>
<path d="M0 0 C2.31 0 4.62 0 7 0 C7 1.98 7 3.96 7 6 C4.69 6 2.38 6 0 6 C0 4.02 0 2.04 0 0 Z " fill="#E92632" transform="translate(67,137)"/>
<path d="M0 0 C2.31 0 4.62 0 7 0 C7 1.98 7 3.96 7 6 C4.69 6 2.38 6 0 6 C0 4.02 0 2.04 0 0 Z " fill="#2D3E8E" transform="translate(95,92)"/>
<path d="M0 0 C1.65 0 3.3 0 5 0 C5 0.66 5 1.32 5 2 C4.34 2 3.68 2 3 2 C3 2.66 3 3.32 3 4 C3.66 4.33 4.32 4.66 5 5 C4.34 5 3.68 5 3 5 C3 5.66 3 6.32 3 7 C3.66 7 4.32 7 5 7 C5 7.66 5 8.32 5 9 C3.35 9 1.7 9 0 9 C0 6.03 0 3.06 0 0 Z " fill="#EB4851" transform="translate(64,114)"/>
<path d="M0 0 C0.99 0 1.98 0 3 0 C3 2.31 3 4.62 3 7 C3.66 7 4.32 7 5 7 C5 7.99 5 8.98 5 10 C3.35 10 1.7 10 0 10 C0 6.7 0 3.4 0 0 Z " fill="#ED5F68" transform="translate(71,114)"/>
<path d="M0 0 C1.98 0 3.96 0 6 0 C6 1.98 6 3.96 6 6 C4.02 6 2.04 6 0 6 C0 4.02 0 2.04 0 0 Z " fill="#EC4F59" transform="translate(38,34)"/>
<path d="M0 0 C1.98 0 3.96 0 6 0 C6 1.98 6 3.96 6 6 C4.02 6 2.04 6 0 6 C0 4.02 0 2.04 0 0 Z " fill="#EC4F59" transform="translate(46,34)"/>
<path d="M0 0 C1.98 0 3.96 0 6 0 C6 1.98 6 3.96 6 6 C4.02 6 2.04 6 0 6 C0 4.02 0 2.04 0 0 Z " fill="#EC4F58" transform="translate(38,26)"/>
<path d="M0 0 C1.65 0 3.3 0 5 0 C5 0.66 5 1.32 5 2 C4.01 2 3.02 2 2 2 C2 2.66 2 3.32 2 4 C2.66 4.33 3.32 4.66 4 5 C3.34 5 2.68 5 2 5 C2 5.66 2 6.32 2 7 C2.99 7 3.98 7 5 7 C5 7.66 5 8.32 5 9 C3.35 9 1.7 9 0 9 C0 6.03 0 3.06 0 0 Z " fill="#E93540" transform="translate(78,114)"/>
<path d="M0 0 C2.64 0 5.28 0 8 0 C8 0.66 8 1.32 8 2 C7.01 2 6.02 2 5 2 C5 4.31 5 6.62 5 9 C4.34 9 3.68 9 3 9 C3 6.69 3 4.38 3 2 C2.01 2 1.02 2 0 2 C0 1.34 0 0.68 0 0 Z " fill="#394994" transform="translate(119,114)"/>
<path d="M0 0 C2.64 0 5.28 0 8 0 C8 0.66 8 1.32 8 2 C7.01 2 6.02 2 5 2 C5 4.31 5 6.62 5 9 C4.34 9 3.68 9 3 9 C3 6.69 3 4.38 3 2 C2.01 2 1.02 2 0 2 C0 1.34 0 0.68 0 0 Z " fill="#E9343F" transform="translate(55,114)"/>
<path d="M0 0 C1.65 0 3.3 0 5 0 C5 1.98 5 3.96 5 6 C3.35 6 1.7 6 0 6 C0 4.02 0 2.04 0 0 Z " fill="#EB3C46" transform="translate(31,34)"/>
<path d="M0 0 C0.66 0 1.32 0 2 0 C2 2.97 2 5.94 2 9 C0.68 8.67 -0.64 8.34 -2 8 C-2 7.01 -2 6.02 -2 5 C-1.34 5 -0.68 5 0 5 C0 3.35 0 1.7 0 0 Z " fill="#4B599D" transform="translate(116,114)"/>
<path d="M0 0 C1.65 0 3.3 0 5 0 C5 1.65 5 3.3 5 5 C3.35 5 1.7 5 0 5 C0 3.35 0 1.7 0 0 Z " fill="#E92F3A" transform="translate(47,26)"/>
<path d="M0 0 C1.65 0 3.3 0 5 0 C5 1.65 5 3.3 5 5 C3.35 5 1.7 5 0 5 C0 3.35 0 1.7 0 0 Z " fill="#E92D38" transform="translate(23,26)"/>
</svg>
